<svg version="1.1" xmlns="http://www.w3.org/2000/svg" xmlns:xlink="http://www.w3.org/1999/xlink" width="30px" height="30px" viewBox="0,0,256,256"><g fill="#ffffff" fill-rule="nonzero" stroke="none" stroke-width="1" stroke-linecap="butt" stroke-linejoin="miter" stroke-miterlimit="10" stroke-dasharray="" stroke-dashoffset="0" font-family="none" font-weight="none" font-size="none" text-anchor="none" style="mix-blend-mode: normal"><g transform="scale(0.5,0.5)"><g><path d="M224,435.8v-359.7c0,-6.7 -5.4,-12.1 -12.2,-12.1h-71.6c-6.8,0 -12.2,5.4 -12.2,12.1v359.7c0,6.7 5.4,12.2 12.2,12.2h71.6c6.8,0 12.2,-5.4 12.2,-12.2z"></path><path d="M371.8,64h-71.6c-6.7,0 -12.2,5.4 -12.2,12.1v359.7c0,6.7 5.4,12.2 12.2,12.2h71.6c6.7,0 12.2,-5.4 12.2,-12.2v-359.7c0,-6.7 -5.4,-12.1 -12.2,-12.1z"></path></g></g></g></svg>